Coordinates
version=1
nRows=12
nColumns=34
inDegrees=yes

Units are S.I. units (second, meters, Newtons, ...)
If the header above contains a line with 'inDegrees', this indicates whether rotational values are in degrees (yes) or radians (no).

endheader
time	pelvis_tilt	pelvis_list	pelvis_rotation	pelvis_tx	pelvis_ty	pelvis_tz	hip_flexion_r	hip_adduction_r	hip_rotation_r	knee_angle_r	ankle_angle_r	subtalar_angle_r	mtp_angle_r	hip_flexion_l	hip_adduction_l	hip_rotation_l	knee_angle_l	ankle_angle_l	subtalar_angle_l	mtp_angle_l	lumbar_extension	lumbar_bending	lumbar_rotation	arm_flex_r	arm_add_r	arm_rot_r	elbow_flex_r	pro_sup_r	arm_flex_l	arm_add_l	arm_rot_l	elbow_flex_l	pro_sup_l
      3.43333330	     -4.61955471	     -0.31523327	     23.34903646	      0.37315317	      0.88948946	     -0.11323160	     29.12374108	      0.37736155	     -3.53710624	     49.35922083	      7.73399005	    -31.73354388	      0.00000000	     25.31849081	      0.51760644	     -5.99410856	     46.93725512	     12.41676071	    -23.01329717	      0.00000000	    -23.30457669	      0.77990710	      5.17136838	     -6.26792214	     -5.31312835	    -18.07099090	     32.63100095	     92.37480122	      1.30710200	     -8.07210537	      4.37413681	     28.15763247	     91.40042200
      3.45000000	     -5.10723784	     -0.56812113	     23.20809253	      0.37205548	      0.88113183	     -0.11442560	     31.45612392	      0.17321680	     -3.64604665	     53.02708722	     12.53350729	    -28.15460183	      0.00000000	     27.70332638	      0.27216475	     -6.07540214	     50.53006836	     15.24871303	    -22.34226453	      0.00000000	    -24.10315359	      0.85365066	      5.11250940	     -6.17437498	     -5.36675954	    -18.42253345	     32.88944299	     92.56376093	      1.58605931	     -8.05427412	      4.26213381	     28.08036526	     92.22382799
      3.46666670	     -5.72388911	     -0.93726607	     22.90863385	      0.37054265	      0.87805990	     -0.11531507	     33.52858670	      0.19794093	     -3.58005911	     55.66056528	     15.30245834	    -26.60384124	      0.00000000	     29.91840078	     -0.07477118	     -6.32383204	     53.43693719	     16.77952246	    -22.09916968	      0.00000000	    -24.90676827	      1.00571057	      5.39371494	     -6.11456007	     -5.49587277	    -18.57601798	     33.32164134	     92.66648425	      1.70636324	     -7.90063019	      4.19226028	     28.26768032	     92.66602096
      3.48333330	     -6.30874024	     -1.03628490	     22.83205164	      0.37154943	      0.85994735	     -0.11554046	     35.63875667	     -0.24410027	     -3.72850924	     59.18632798	     18.60807671	    -24.60633959	      0.00000000	     32.19753280	     -0.46337859	     -6.97018955	     56.96281242	     18.70429325	    -21.08424319	      0.00000000	    -25.71315233	      0.94545218	      5.23255502	     -6.04256580	     -5.45618593	    -18.77130635	     33.37479284	     92.73492046	      1.87410800	     -7.92978962	      4.21919379	     28.17816430	     93.11140660
      3.50000000	     -6.70418150	     -1.02510171	     22.55126687	      0.36815134	      0.85002096	     -0.11552776	     38.34482884	     -0.85349354	     -4.04020349	     63.37724116	     19.91933904	    -23.67064360	      0.00000000	     34.15281559	     -0.83450349	     -7.71966797	     60.24090809	     21.28509098	    -19.15069573	      0.00000000	    -26.98665207	      0.79048577	      5.26569222	     -5.68693835	     -5.55753264	    -18.96829624	     33.46991106	     92.83503305	      2.21383696	     -7.78767152	      4.11317936	     28.16198018	     93.65979420
      3.51666670	     -7.33440346	     -0.95897424	     22.34546755	      0.36672572	      0.83628708	     -0.11456244	     41.16654369	     -1.57134455	     -4.23043936	     67.24450206	     21.27624619	    -22.65450550	      0.00000000	     36.38042666	     -1.19309805	     -8.46986429	     63.54021093	     23.99445568	    -16.88555534	      0.00000000	    -27.83203200	      0.50208031	      5.12723059	     -5.33147200	     -5.52789616	    -19.06973077	     33.31489619	     92.92186303	      2.47687044	     -7.75719883	      3.98253356	     28.04190158	     94.12114517
      3.53333330	     -8.13495009	     -0.84196812	     22.17908165	      0.36356665	      0.82228749	     -0.11381622	     44.15574782	     -2.31520049	     -4.14676706	     71.01016209	     21.87630142	    -22.55100703	      0.00000000	     38.83574660	     -1.67888269	     -9.40002351	     67.15714652	     26.17143558	    -14.70524021	      0.00000000	    -28.65407942	      0.12599640	      4.88550117	     -4.98689841	     -5.48307000	    -19.12069115	     33.41878733	     92.96972029	      2.78827175	     -7.76863314	      3.85235536	     27.95867030	     94.36583875
      3.55000000	     -8.26543802	     -0.75134363	     22.21339692	      0.36530462	      0.81796846	     -0.11389307	     46.03614291	     -2.85239013	     -4.42823800	     74.04168493	     21.66372959	    -22.31849503	      0.00000000	     40.64195328	     -2.58508833	    -10.39894320	     70.44039980	     25.89777476	    -13.59314106	      0.00000000	    -30.02381493	      0.03200331	      4.78271963	     -4.50240866	     -5.38636434	    -19.16187361	     33.33096541	     93.00589703	      3.28092119	     -7.72743507	      3.72506735	     27.72166741	     94.52589461
      3.56666670	     -8.26948811	     -0.51400199	     22.50781045	      0.36161989	      0.80696898	     -0.11351769	     47.53286541	     -3.46878241	     -4.50387994	     76.98994347	     21.92419204	    -22.43096589	      0.00000000	     42.69439722	     -3.03840695	    -10.68798016	     74.08537154	     25.80627442	    -12.49242851	      0.00000000	    -31.52355001	     -0.05731880	      4.47306206	     -4.01307587	     -5.29106871	    -19.20828987	     33.48357128	     93.03739639	      3.88592818	     -7.73845752	      3.60562318	     27.40735401	     94.67003049
      3.58333330	     -8.18964388	     -0.44603209	     22.53994239	      0.36173181	      0.79350450	     -0.11399188	     49.05131630	     -3.76950095	     -4.46856003	     79.85877763	     22.39314183	    -21.76541308	      0.00000000	     44.95484929	     -3.79958337	    -10.84213894	     78.19565095	     25.20047849	    -11.83277198	      0.00000000	    -32.96710129	     -0.01346129	      4.43954658	     -3.53641808	     -5.35797365	    -19.28672619	     33.60628975	     93.07987830	      4.48810174	     -7.64623436	      3.41986176	     27.07970326	     94.83659374
      3.60000000	     -8.14107715	     -0.55209712	     22.81909900	      0.35792512	      0.78480066	     -0.11335648	     50.57635426	     -4.00752573	     -4.33120816	     82.07808239	     23.93365653	    -20.48786049	      0.00000000	     47.12671099	     -4.16860944	    -10.46995102	     81.64049457	     25.54669422	    -10.81830094	      0.00000000	    -34.72034616	      0.31719671	      4.31366288	     -2.99328889	     -5.39386173	    -19.37639539	     34.19539180	     93.12437209	      5.28944997	     -7.55594557	      3.20314851	     27.01058308	     95.01286861
      3.61666670	     -8.00728490	     -0.53071817	     22.85648927	      0.35802720	      0.76232015	     -0.11312203	     52.62700466	     -4.23449135	     -3.97764409	     85.95276988	     25.66993440	    -19.06705882	      0.00000000	     49.64130542	     -4.63604195	    -10.06235700	     85.92735195	     25.57345738	    -10.82056882	      0.00000000	    -36.07209412	      0.40840802	      4.38701529	     -2.57663778	     -5.49736896	    -19.45828171	     34.49372786	     93.16511593	      5.97978097	     -7.47165006	      2.97622230	     27.02133149	     95.15024825
